<svg width="130" height="60" viewBox="17 40 99 54" fill="none" xmlns="http://www.w3.org/2000/svg">
<path fill-rule="evenodd" clip-rule="evenodd" d="M59.2673 84.3512V81.9061H59.1526L59.1193 81.9456C57.7901 83.5231 56.6772 84.8438 54.015 84.8438C49.1315 84.8438 47.3877 78.9684 47.3877 68.9473C47.3877 58.8046 49.6542 53.185 54.5942 53.185C56.5829 53.185 58.0417 54.2216 58.8639 55.3818H58.9777V40.8682H65.7271V84.3512H59.2673ZM58.9779 78.7288V58.9274C58.6865 58.3758 57.9835 57.9469 57.1103 57.9469C55.1216 57.9469 54.5943 59.2299 54.5943 68.8866C54.5943 78.3028 54.9467 79.7065 56.9355 79.7065C57.928 79.7065 58.6282 79.2804 58.9779 78.7288ZM97.4924 56.2161V50.004C94.9227 50.3111 92.5834 52.2085 91.4743 54.6393C89.7815 53.364 88.2644 53.1814 86.9177 53.1814C81.5397 53.1814 78.3854 57.7996 78.3854 62.7335C78.3854 66.2514 79.0857 69.2652 81.9504 71.328C79.7886 72.6642 78.0913 74.3114 78.0913 77.1844C78.0913 79.6951 80.0218 81.2292 82.1252 81.8407V81.9595C79.5546 83.0038 76.9212 84.2087 76.9212 87.582C76.9212 89.525 79.1439 93.4946 86.9177 93.4946C94.8052 93.4946 97.4924 89.1598 97.4924 84.8098C97.4924 78.3657 92.1136 77.1875 88.0755 76.303C85.6487 75.7714 83.706 75.3458 83.706 73.9471C83.706 73.3347 83.8217 72.8439 84.3498 72.5396C85.1065 72.7859 85.9251 72.8439 86.7419 72.8439C92.058 72.8439 95.3898 68.2267 95.3898 62.919C95.3898 60.393 94.8052 58.4786 93.4002 56.6412C93.9866 56.1581 94.8635 55.8538 95.4499 55.8538C95.9125 55.8538 96.8477 55.9755 97.4924 56.2161ZM86.7419 83.0618C87.4431 83.1236 91.8831 83.8426 91.8831 85.7761C91.8831 87.6486 90.1858 88.7328 87.1517 88.7328C83.5895 88.7328 82.5359 87.8284 82.5359 86.322C82.5359 84.1498 85.692 83.2425 86.7419 83.0618ZM86.9175 68.4729C85.2812 68.4729 84.4662 66.8105 84.4662 63.0454C84.4662 59.2175 85.2812 57.5522 86.9175 57.5522C88.4956 57.5522 89.3106 59.2175 89.3106 63.0454C89.3106 66.8105 88.4956 68.4729 86.9175 68.4729ZM106.925 84.8486C112.16 84.8486 116.232 80.6232 116.232 69.0177C116.232 57.418 112.16 53.1926 106.925 53.1926C101.686 53.1926 97.6128 57.418 97.6128 69.0177C97.6128 80.6232 101.686 84.8486 106.925 84.8486ZM106.925 58.3349C108.498 58.3349 109.025 59.6806 109.025 69.0178C109.025 78.3579 108.498 79.7064 106.925 79.7064C105.349 79.7064 104.824 78.3579 104.824 69.0178C104.824 59.6806 105.349 58.3349 106.925 58.3349ZM33.7235 53.6788H26.9723V84.3619H33.7235V60.2057C34.1906 59.5913 35.0584 59.0426 35.9899 59.0426C37.15 59.0426 37.9085 59.7768 37.9085 62.0992V84.3619H44.6578V59.5324C44.6578 55.5066 43.1453 53.1909 39.9446 53.1909C37.4396 53.1909 35.4062 54.8999 33.84 56.6041H33.7235V53.6788ZM17 74.5864V40.8685H23.7812V74.5864H17ZM17 84.362V77.2768H23.7812V84.362H17ZM69.1878 40.8685V47.9213H75.9362V40.8685H69.1878ZM69.1878 53.6789V84.362H75.9362V53.6789H69.1878Z" fill="white"/>
</svg>
