<svg xmlns="http://www.w3.org/2000/svg" viewBox="0 0 2500 481" fill="#2D7D2F"><path d="M266.1 0c76.7 0 154.9 16.5 228.4 52.1 25 59.7 37.8 123.8 37.8 188.5 0 62.2-11.7 125.5-37.6 188.1-73.8 35.7-151.7 52.1-228.5 52.1-76.8 0-154.7-16.4-228.5-52.1C11.7 366 0 302.8 0 240.5c0-62.4 11.8-126.4 37.8-188.5C111.2 16.5 189.4 0 266.1 0z"/><path fill="#FFDD00" d="M53.7 413.7c-21.4-53.7-33.2-112.2-33.2-173.2 0-61.1 11.8-119.6 33.3-173.5 63.8-29.9 136.5-46.7 212.3-46.7 75.8 0 148.5 16.8 212.3 46.7 21.5 53.9 33.3 112.4 33.3 173.5 0 61-11.7 119.4-33.2 173.2-63.8 30-136.6 46.7-212.4 46.7-75.8 0-148.5-16.8-212.4-46.7z"/><path d="M466.4 402.5c-13.4-22.1-31.4-39.9-31.6-40.1-1.2-.4-2.5-.8-3.7-1.2-38.2-11.8-63.3-20.6-74.4-26.3-15.2-7.9-31.3-27.1-33-29.3-17.9-1.4-32.7-1.1-46.9.7l-9.1 1.2c-17.3 2.2-35.1 4.6-52.6 1.8-11.6-1.9-22.9-5.6-34.9-9.5-18.5-6-37.4-12.3-59-12.2h-.9l.4.8c4.9 9.5 24.3 38.5 48.6 46.5 5.4 1.3 9.2 2.7 10.9 4 0 .1 9.3 19 11.8 24.1-15.1-6.9-61.9-30.6-99.6-76.5v-.1c0-.6-1-9.5-1.2-11.5 22.5-8.4 73-13.2 78.7-13.8l.4 0 .2-.5c3-26.6 9.3-47.9 21.1-71.2.3-.7.5-1.4.5-1.9 0-.4-.1-.8-.3-1.1-.7-1.3-2.3-1.5-2.3-1.5l-34.4-6-3.7-11.4c24.8-9.2 55.4-17.9 72.9-21.7 3-4.7 3.8-7.3 3.8-10.4 0-2.6-1.3-4.9-3.8-6.6-12.4-8.4-51.5-3.3-91 11.8-.1-.2-.1-.2-.2-.4 8.2-6.1 22.9-15.3 33.8-20.3l.4-.2-.1-.4c-3-10-22.3-17.6-24.4-18.4 0-.3.1-.6.1-.8 19.6-1.3 32.7 7.8 36.6 14.4l.2.3.4-.1c2.5-.8 11.4-3.6 21-4.8l.6 0-.2-.6c-3.2-16.8-19.2-28-24.7-31.4.2-.3.2-.4.4-.6 19 1.5 36.5 17.8 40.4 31.6l.1.4.4 0c5.1.2 11.3.7 15.4 1.4l.4.1.2-.4c1.5-3.6 2.3-7.5 2.3-11.5 0-12.4-7-25.7-15.7-34.2.2-.2.3-.5.5-.7 24.9 9.4 31.2 27.4 31.2 44.1 0 11.7-3.1 22.8-5.1 29.9l-.8 2.9s36.7-4.4 39.1-4.7c-3.7 4.7-11.8 13.1-27.8 22 0-.1-16.5-2.1-16.5-2.1l-.4-.1-.1.4c-1.1 3.4-10.8 34-10.8 56.5 0 8.3 2.4 14.8 7 19.3 8.3 8 22 8.4 31.6 8 40.8-1.5 72.7 1 94.8 7.6l1.3.4.2-.3c1.4-2.1 2.4-6 2.4-11.2 0-9.9-3.9-24.5-17.2-41.2.1-.1.1-.2.3-.3 2.2 1.2 38 21.5 42.8 52.2-.8.3-17.2 7-17.2 7l.5.5c15.1 15.8 20.3 35 24.5 50.3 3.3 12.1 7.3 19.9 12.6 24.5 6.1 5.3 29.3 16.3 36.2 19.6 5.8 8.2 15.7 23.6 22.9 35.5v0c15.7-46.5 23.7-95.2 23.7-144.3 0-55.9-10.2-110.4-30.1-162.3-61.7-27.9-130.8-42.7-200.1-42.7-69.4 0-138.4 14.8-200.1 42.7C46.1 130 35.8 185 35.9 240.5c0 55.7 10.2 110.2 30 162 61.7 27.9 130.8 42.6 200.2 42.6 69.4.1 138.5-14.7 200.3-42.6zM620.1 305s22.7 8.1 48.2 8.1c27.1 0 44-3.7 53.5-13.3 7.8-7.9 11-21 10.5-40.3V130.7h40.1v134.4c-.6 59.5-29.5 84.9-96.9 84.9-32.7 0-55.5-5.1-55.5-5.1V305zm176 -44c0 41 26.9 89 102.8 89 75.9 0 102.8-47.9 102.8-89 0-57.4-38.4-91.7-102.8-91.7-64.3 0-102.8 34.3-102.8 91.7zm102.8 53.8c-23.4 0-62.8-7.2-62.8-55.6 0-34.7 22.9-54.6 62.8-54.6 39.9 0 62.7 19.9 62.7 54.6 0 48.3-39.2 55.6-62.7 55.6zm270.8-141.4V242h-104.2v-68.6h-40V346h40v-68.6h104.2V346h40V173.4h-40zm636.4 137.2v-33.3h92.4V242h-92.4v-33.3h119.4v-35.3h-159.4V346h159.4v-35.3h-119.4zm186.2 0v-33.3h92.4V242h-92.4v-33.3h119.4v-35.3h-159.5V346h159.5v-35.3h-119.4zm388.2 0v-33.3h92.5V242h-92.5v-33.3H2500v-35.3h-159.5V346H2500v-35.3h-119.5zm-814.1-144.5v144.3h56.6c30.7 0 82.3-9.5 82.3-72.8 0-45.5-30-71.5-82.3-71.5h-56.6zm56.6-35.6c76.7 0 122.6 40.9 122.6 109.3 0 49-32.1 106.2-122.6 106.2h-96.8V130.5h46.3 50.5zm699.1 215.5h-48.4l-48.3-63.1h-47V346h-40V173.4h113.2c39 0 62.2 20.7 62.2 55.4 0 20.8-11.6 44.1-42 51.4L2322.1 346zm-68.3-98.4c8.3 0 22.2-2.6 22.2-19.7 0-12.2-8.1-19.2-22.2-19.2h-73.2v38.8l73.2.1zM1386.5 346l-104.1-117.6V346h-40V173.4h39.7l104.5 116.4V173.4h40.1V346h-40.2z"/></svg>
