<svg xmlns="http://www.w3.org/2000/svg" viewBox="530 260 740 180" fill="#da0000"><path d="M1074.1 279.5c-1.8 0-2.8 2.3-3.4 4.5l-33.2 112.1c-3 9.8-8.4 20-16.6 21.6-2.7.5-2 6.2 0 5.9h48.4c1.3 0 1.1-5.7-.4-5.7-9.7 0-18.4-8.3-15.1-18.7l23.4-79.9c.5-1.6 1.2-1.4 1.5-.3l29.3 86.3c.9 4.3.6 12.5-7.9 12.5-2.9 0-3.8-.1-5.1.7-.6.4-1 5.1.5 5.1h74.3c1.8 0 1.2-4.9 0-4.9-13.6-.6-18.6-20.8-18.6-20.8l-38.3-114.5c-.6-2.1-1.4-4-3.2-4h-35.6M1102.7 374.1v-12h-44.5v12h44.5M764.7 279.5c-1.8 0-2.8 2.3-3.3 4.5l-33.2 112.1c-3.1 9.8-8.5 20-16.7 21.6-2.7.5-2 6.2 0 5.9h48.5c1.2 0 1-5.7-.5-5.7-9.7 0-18.4-8.3-15.1-18.7l23.4-79.9c.5-1.6 1.2-1.4 1.5-.3l29.3 86.3c.8 4.3.5 12.5-8 12.5-3 0-3.8-.1-5.1.7-.6.4-1.1 5.1.5 5.1h74.4c1.8 0 1.2-4.9 0-4.9-13.6-.6-18.6-20.8-18.6-20.8l-38.3-114.5c-.5-2.1-1.4-4-3.2-4h-35.6M793.3 374.1v-12h-44.5v12h44.5M551.1 279.5c-1.5 0-1.7 4.2.4 4.8 4.7 1.4 11.7-1 11.7 12.3v110.4s0 11-13.3 11.4c-1.9.1-1.1 5.2.3 5.2h66.4c1.5 0 1.3-5 .1-5-7.3.2-11.5-3.7-11.5-10.8v-45.5c0-4.6 1.9-4.8 4-1.4l27.6 47.8c.9 3.7.2 9.4-7 9.6-1.2 0-.9 5.4.4 5.4h71.5c1.7 0 1.7-5.2.4-5.2-5.3.1-9.8-2.3-13.5-7.3-3.8-5 -49.4-76.1-51.2-79-1.1-1.7-2.3-3.1.6-6l23.6-26c9.4-7.7 20.1-15 29.3-16 2.3-.2 1.6-4.9.3-4.9h-56.9c-1.3 0-1.7 4.6 0 4.6 10.8 0 12.7 8.9 8.6 14.3l-35.2 39.4c-1.3 1.4-2.3.5-2.3-2.4v-42.9c1.2-6 2.5-7.9 10.6-7.9 1.2 0 1.7-5.2.2-5.2h-65M847.1 279.5c-1.6 0-1.3 5.2.3 5.7 6 1.6 7.4 3.8 10.6 14.2l37.9 121.4c.6 2 1.6 2.8 3.1 2.8h21.7c2.2 0 1.8-1.5 2.4-3.8.8-2.8 17.3-65.6 17.3-65.6.5-.9 1.2-1.2 1.5.1l17.8 66.2c.5 1.7 1.5 2.9 3 2.9h21.2c2.2 0 2.4-1.1 2.8-2.8l31-118.4c2.7-9.6 9.2-16 15.1-17 2.4-.5 2.5-5.9.5-5.9s-39.4 0-43.1 0c-1.8 0-2.5 5.7.3 6.2 7.7 1.2 14.7 5.2 10.6 20l-14.1 51.9c-.3 1.2-1.1 1.8-1.4.6l-15.4-59.4c-2.1-8.3-.1-12.7 4.9-13.1 2.3-.2 2.3-6.1 0-6.1h-58.6c-2.6 0-1.7 5 0 5.3 4.3.8 6.7 3.6 8.2 8.7l7.1 26.1c1.2 2.5.8.5 0 4.6l-9.2 34.8c-.3 1.6-.9 1.7-1.3.5l-17.7-62.6c-2.4-7.8-.5-11.1 2.8-11.6 2.5-.5 2.6-5.9 0-5.9h-59.8M1183.7 279.5c-1.4 0-3 6.4.9 6.4 6 0 12.3 2.6 12.3 11.3v110.3c0 8.2-6.5 10.5-13.4 10.7-2.1 0-1 5.4.2 5.4h72.3c2 0 1.6-5.3-.6-5.3-9.5 0-15.2-5.7-15.2-13.1V296.4c0-7.8 4.1-10.4 13-10.5 2.9-.1 1.7-6.4-.2-6.4h-69.3"/></svg>
