<svg xmlns="http://www.w3.org/2000/svg" width="260" height="32" viewBox="0 0 260 32"><g fill="none" fill-rule="evenodd"><path class="logo-text" d="M94.956 19.8c.148.19.39.19.538 0l4.143-5.235h-8.825l4.144 5.234zM242.613 1.661a1.942 1.942 0 011.79-1.207c.27 0 .524.052.762.157a1.95 1.95 0 011.029 1.05c.1.24.15.495.15.765s-.05.525-.15.764a1.939 1.939 0 01-1.791 1.207 1.92 1.92 0 01-1.378-.581 1.942 1.942 0 01-.412-.626c-.101-.24-.15-.494-.15-.764s.049-.526.15-.765m.134 2.417a2.359 2.359 0 001.656.667c.323 0 .626-.059.912-.176.285-.118.533-.281.745-.49.212-.21.377-.456.5-.739.122-.283.183-.588.183-.914 0-.323-.061-.626-.183-.912a2.363 2.363 0 00-.5-.745 2.335 2.335 0 00-1.657-.682 2.324 2.324 0 00-2.339 2.339 2.32 2.32 0 00.683 1.652m1.339-2.8h.034c.109 0 .22-.009.328-.004.1.006.199.05.27.129a.478.478 0 01.088.455c-.06.197-.201.342-.373.35-.114.004-.229 0-.347 0v-.93zm-.532.075v1.941c0 .033 0 .066-.004.099-.008.09-.003.176-.048.252h.625c-.055-.096-.041-.2-.042-.31v-.802l.003-.028c.096 0 .19.003.285 0 .052-.003.094.02.128.063.026.035.05.075.066.118.085.222.167.446.25.67.021.054.048.288.048.288l.704.004a.848.848 0 01-.214-.342l-.031-.081-.154-.458a.256.256 0 00-.117-.143l-.23-.128-.017-.005a.069.069 0 01.022-.003h.01l.011-.003c.176-.038.267-.117.393-.28a.737.737 0 00.146-.556.708.708 0 00-.243-.467c-.167-.146-.42-.2-.62-.2-.32-.002-.702 0-1.021 0h-.005c.068.115.055.24.055.371zm-150 28.159h-3.995V2.489h3.77c2.346 0 4.688-.004 7.004.328.136.02.248.012.344-.038.102-.053.153-.14.212-.259l1.214-2.453c-.003-.006-.003.006-.007 0h-19.23c.222 1.67.354 3.917.354 5.89V26.11c0 1.972-.132 4.22-.354 5.89h18.15c.969 0 1.571-.535 1.571-1.554v-1.872c-1.126.55-4.273.939-9.034.939m56.539-9.714c.148.19.39.19.539 0l4.142-5.234h-8.825l4.144 5.234zm-1.403 9.714h-3.994V2.489h3.77c2.346 0 4.688-.004 7.004.328.136.02.248.012.344-.038.102-.053.153-.14.212-.259l1.214-2.453c-.003-.006-.003.006-.007 0h-19.23c.222 1.67.355 3.917.355 5.89V26.11c0 1.972-.133 4.22-.355 5.89h18.15c.969 0 1.571-.535 1.571-1.554v-1.872c-1.126.55-4.273.939-9.034.939M77.113 5.956c0-1.972.132-4.218.354-5.889h-4.67c-1.45.043-2.458.72-3.027 2.157L61.76 23.28 53.747 2.224C53.157.737 52.102.067 50.568.067H46c.223 1.67.355 3.917.355 5.89V26.11c0 1.972-.132 4.22-.355 5.89h3.43V8.26L58.484 32h3.23l9.06-23.74v21.636c0 1.388.673 2.104 2.066 2.104h4.627c-.222-1.67-.354-3.918-.354-5.89V5.956zm141.896 0c0-1.972.132-4.218.355-5.889h-4.67c-1.451.043-2.458.72-3.028 2.157l-8.008 21.056-8.014-21.056c-.59-1.487-1.646-2.157-3.18-2.157h-4.567c.222 1.67.354 3.917.354 5.89V26.11c0 1.972-.132 4.22-.354 5.89h3.43V8.26L200.38 32h3.23l9.061-23.74v21.636c0 1.388.672 2.104 2.066 2.104h4.627c-.223-1.67-.355-3.918-.355-5.89V5.956zm-102.696-3.47h-3.138v27.028h3.138v-.003c3.861 0 6.319-.862 8.268-3.254 1.79-2.197 2.774-5.562 2.774-10.258 0-4.732-.99-8.203-2.912-10.442-1.828-2.13-4.13-3.07-8.13-3.07m17.442 13.546c0 5.538-1.503 9.472-4.12 12.05C126.948 30.728 123.741 32 116.94 32h-10.458c.222-1.67.355-3.918.355-5.89V5.956c0-1.972-.133-4.218-.355-5.889h10.459c5.793 0 9.745 1.188 12.596 3.989 2.69 2.642 4.218 6.615 4.218 11.977m36.908.2c-.74.087-1.766.257-2.352.75V2.485h1.591c3.795 0 6.758 1.62 6.758 6.81 0 4.599-2.215 6.49-5.997 6.938m11.28 11.249c-1.992-3.702-4.408-8.274-5.281-9.917 3.779-1.164 6.38-3.898 6.38-8.457 0-3.015-1.056-5.3-2.92-6.773-2.1-1.66-4.696-2.268-8.793-2.268h-9.71c.222 1.67.354 3.922.354 5.894v20.153c0 1.973-.132 4.215-.355 5.886h6.693V20.82c0-1.166.43-1.708 1.075-1.865.723-.176 1.3.126 1.854 1.165.662 1.244 3.217 6.225 5.151 10.057.759 1.502 1.286 1.823 3.095 1.823h5.36c-.78-.912-1.856-2.572-2.903-4.518m47.089-7.397l4.488-14.588 4.418 14.588h-8.906zm17.869 7.548l-8.232-25.488a2.998 2.998 0 00-2.844-2.078h-4.026c-.218 1.488-.625 3.245-1.484 5.918-1.791 5.575-5.557 17.206-6.633 20.298-.589 1.693-1.56 4.165-2.36 5.717h4.044l2.769-9h10.686l2.215 7.317C241.401 31.51 242.16 32 243.33 32h5.51s-.715-.869-1.938-4.367z" fill="#340D32"/><path class="logo-bottom" fill="#B5905B" d="M0 23.692c0-.354.43-.531.68-.281l8.09 8.085c.25.25.072.677-.282.677H1.191a1.19 1.19 0 01-1.19-1.19zm40.666-.281c.25-.25.68-.073.68.28v7.292a1.19 1.19 0 01-1.19 1.19h-7.298a.397.397 0 01-.281-.677zm-11.37-.808c.354 0 .53.427.281.677l-8.058 8.051a1.19 1.19 0 01-1.683 0l-8.06-8.05a.397.397 0 01.28-.678z"/><path class="logo-upper" fill="#340D32" d="M0 .54l19.798 19.78H8.813l-7.65-7.644C.33 11.845 0 11.132 0 9.87V.54zm41.346 0v9.33c0 1.262-.33 1.975-1.163 2.806l-7.65 7.644H21.548L41.346.54zM29.085.538l-8.412 8.404L12.261.538h16.824z"/></g></svg>
