<svg xmlns="http://www.w3.org/2000/svg" viewBox="0 0 200 41"><g fill="#ffffff"><path d="M145.3 16.3v2h15v-2zm15.8 0v2h20.8v-2zm20.6 0l-.7 2h11.9v-2zm20.6 0l-.7 2h13v-2zm-177 3.8v2h15.3v-2zm15.8 0v2h20.8v-2zm20.5 0v2h13.3v-2zm19.2 0l-.7 2h14.5v-2zm15.2 0l-.7 2h14.5v-2zm-60 3.8v2h6v-2zm15.8 0v2h6v-2zm11.9 0v2h6c0 0 .4-1 .4-2zm11.8 0v2h10.7l-.7-2zm13.8 0l-.7 2h10.7v-2zm-53.4 3.8v2h6v-2zm15.8 0v2h15.4c0 0 1.3-1 1.7-2zm23.7 0v2h6v-1.1l.4 1.1h11l.4-1.1v1.1h6v-2h-11.3l-.6 1.7-.6-1.7zm-39.5 3.8v2h6v-2zm15.8 0v2h17.1c-.4-1-1.7-2-1.7-2zm23.7 0v2h6v-2zm7.1 0l.7 2h8.3l.7-2zm10.7 0v2h6v-2zm-57.1 3.8v2h6v-2zm15.8 0v2h6v-2zm11.9 0v2h6.4c0-1-.4-2-.4-2zm11.8 0v2h6v-2zm8.5 0l.7 2h5.5l.7-2zm9.4 0v2h6v-2zm-61.3 3.8v2h13.9v-2zm15.7 0v2h21.4c.5-.5.7-2 .7-2zm23.8 0v2h13.7v-2zm13.7 0l.7 2h2.8l.7-2zm8 0v2h10v-2zm-61.3 3.8v2h13.9v-2zm15.7 0v2h20.5c2.7 0 4.7-2 4.7-2zm23.8 0v2h13.7v-2zm15.1 0l.7 2 .1.1.7-2zm6.6 0v2h10v-2z"/></g><path fill="#ffffff" d="M72.6 7.3L66.8 13v2.7l.1-.1c23-6 33.2-8.9 33.3-8.9.1 0 .1-.1.1-.2 0-.1-.1-.2-.3-.1M72.4 7v.2c-1.2.1-3.8 2.3-5.3 3.7-7.4 6.2-12.5 11.7-16 17.3-8.2 4.4-17.9 8.6-27.6 11.9l-.3.1-2 5.5 1.1-.5c6.8-2.6 17.1-7.2 26.5-12.1-.6 1.5-.9 2.8-.9 4 0 1 .2 1.8.5 2.5.6 1.6 1.8 2.7 3.4 3.4 2.6 1 5.9 1 10-1 10.4-3.1 22.1-12.1 24.6-13.9l.1-.1c.1-.1.1-.2.1-.3 0-.1-.1-.2-.2-.2l-.1.1c-2.9 1.7-16.2 9.3-24.7 11.5-4.6 1.2-7.9.6-9.2-1-1.2-1.3-.9-4 1.4-7.1 1.5-.9 2.9-1.7 4.1-2.4 8.8-5 18.7-14.2 19.1-19.7 0 0 0-.1 0-.1 0-.5-.2-1-.6-1.3-.4-.5-1-. 7-.2-1.4.3-2.7.9-3.6 1.9-1.5 2.1-1.8 4.7-1.8 7.5 0 3.4.8 5.6 2.2 7 1.3 1.3 3.2 2 5.6 2 1.6 0 3.4-.5 5.3-1.4 4.1-2 8.6-5.6 12.7-9.8 3-3.3 5.7-6.8 7.7-9.9l.5-.8c.2-.1.3-.3.3-.3 1.9.2 5.7-.3 6.3-.5.5-.1 1.3-.2 1.6-.6 1.5.3 2.4.6 2.7.7.5 0 .9-.2 1.2-.4.3-.3.4-.8.3-1.1-.2-.3-2.3-1.4-2.4-1.8 0-.3.3-.3.3-.3 1.5-.5 3-1.4 3.9-3.2.9-1.7 1-4-.6-5.3-1.5-1.1-3.7-.9-5.4.6-1.7 1.5-2.3 3.7-2.1 5.7 0 .3 0 .4-.4.5-2.6.2-5.2.3-8 .4-.2 0-.3-.1-.2-.2 3.2-5.6 8.1-9.6 13.5-13.5.4-.3.3-.8.2-1.2 9.7 2.1 19.1 6 29.3 5.9 4.2 0 8.2-.7 12-2.7 3.3-1.8 4.7-3.5 4.8-5.2.1-1.2-.8-2-2-1.7-10.2 2.3-19.9 2.3-30.1 1.1-11.6-1.4-22.7-4.3-34.2-4.2M95.8 17.9c.2 0 .5.1.6.2.5.5.3 1.6-.3 2.4-.6.9-1.6 1.6-2.5 1.8-.2 0-.3 0-.4-.5-.2-1.1.2-2.5 1.4-3.5.4-.3.8-.5 1.2-.4"/></svg>
