<svg xmlns="http://www.w3.org/2000/svg" height="800" width="1200" viewBox="-5.856135 -5.136975 50.75317 30.82185"><path d="M25.3547 9.9088L19.388 0l-5.9665 9.9088zM8.174 18.6239l-1.1584 1.9237 24.7452.0003-1.1589-1.924z" fill="#3f125f"/><path d="M6.9233 11.369c-.5056 0-1.0503 1.6337-1.8278 3.3644-.5157 1.1378-.9338 2.2268-1.0989 2.5573-.1944-.0194-.3887-.0391-.593-.0391-.2335 0-.4766.0197-.7197.0391-.1457-.4081-.5835-1.6238-1.0795-2.849C1.0114 12.9833.4864 11.3884 0 11.369v-.0875c.4964.0198.9821.0392 1.4683.0392.3503 0 .7002-.0194 1.0407-.0392v.0875c-.1267.0392-.2625.0487-.2625.3503 0 .768 1.4877 4.1519 1.6432 4.6087.2138-.5345 1.4485-3.3253 1.4485-4.5117 0-.3305-.1358-.4081-.34-.4473v-.0875c.3305.0198.671.0392 1.011.0392.3013 0 .6124-.0194.914-.0392zm5.5138 4.4438c-.2335.5348-.4085.943-.5055 1.5653-.0879-.0677-.3891-.097-.7387-.1069-.3507-.0194-.749-.0194-1.07-.0194H8.9756c-.7778 0-1.4001.0293-1.4975.0388v-.0875c.4766 0 .4766-.8262.4766-2.9171 0-2.2458-.0099-2.8684-.4766-2.9171v-.0872c.2043 0 .4473.0096.739.0194.3013.0096.6517.0194 1.0697.0194h.836c.9141 0 1.5946-.0292 2.0032-.1263-.0681.272-.1655.6707-.1655 1.3127v.1944h-.204c0-.8946-.7386-1.0304-1.7405-1.0304-.2043 0-.3891.019-.5447.0578-.0776.6223-.0776 1.9156-.0776 2.159.1266.0095.272.029.5542.029 1.0597 0 1.1864-.2333 1.2252-.7099h.2043c-.0388.3694-.0681.7391-.0681 1.1184 0 .6417 0 .243.0095.7485h-.2138c0-.5154-.2042-.7972-1.1571-.7972-.2332 0-.4276 0-.5542.0095 0 .3115 0 1.8475.0293 2.4892.2138.0099.4275.0388.6512.0388 1.5462 0 1.8669-.4861 2.188-1.089zm.8314 1.3903c.4766-.0095.4766-.8554.4766-2.917 0-2.0614 0-2.8978-.4766-2.9172v-.0871c.1849.0095.3986.0194.6029.0289.2039 0 .4082.0099.5637.0099.2918 0 .6322-.0293 1.021-.0681.3792-.0293.8071-.0586 1.245-.0586.2723 0 1.857 0 1.857 1.4394 0 1.1472-1.1572 1.5363-1.7018 1.6333.2042.2336.7782 1.1085 1.41 1.9057.5542.7003.8072 1.0114 1.0795 1.0308v.0875c-.0974-.0095-.224-.0194-.3404-.0292-.1267-.0096-.253-.0096-.3793-.0096-.3986 0-.8166.0194-1.2153.0776-.1168-.1845-.4861-.8068-.9334-1.4777-.4184-.6223-.749-1.2446-1.1282-1.2446-.1362 0-.0582 0-.1651.0194 0 1.614 0 2.5766.4956 2.5766v.0875c-.3887-.0292-.8265-.0388-1.2054-.0388-.4085 0-.8266.0096-1.2058.0388zm2.1975-2.9365c.8653 0 1.5363-.2039 1.5363-1.264 0-.8847-.525-1.3709-1.1476-1.3709-.2138 0-.4276.0388-.6318.0776-.0388.7003-.0388 2.2462-.0388 2.5478.0776 0 .1266.0095.2819.0095m9.1975-1.6333c0-.6809-.3887-.8654-1.439-.8654-.097 0-.1848.0099-.2818.0194-.049.243-.049 1.2252-.049 2.4987 0 2.0613 0 2.9076.496 2.9171v.0875c-.3793-.0292-.7973-.0388-1.2058-.0388-.4086 0-.8262.0096-1.2055.0388v-.0875c.496-.0095.496-.8558.496-2.917 0-1.2736 0-2.2557-.0487-2.4988-.0973-.0095-.1848-.0194-.2822-.0194-1.1373 0-1.517.515-1.6626 1.1571l-.243-.0585c.1262-.428.243-1.0407.243-1.6726.0585.0392.3792.0586.7976.0681.418.0198.9331.0198 1.361.0198h1.0601c1.1667 0 1.9738-.0099 2.382-.0879-.0582.2823-.1552.6904-.1552 1.517v.1848h-.2629zm6.0679 3.1795c-.2332.5348-.4085.943-.5059 1.5653-.0871-.0677-.3888-.097-.739-.1069-.3497-.0194-.7483-.0194-1.0693-.0194h-1.1476c-.7779 0-1.4002.0293-1.4972.0388v-.0875c.4762 0 .4762-.8262.4762-2.9171 0-2.2458-.0095-2.8684-.4762-2.9171v-.0872c.2039 0 .4473.0096.7387.0194.3013.0096.6516.0194 1.07.0194h.836c.9141 0 1.5946-.0292 2.0031-.1263-.068.272-.1654.6707-.1654 1.3127v.1944h-.204c0-.8946-.739-1.0304-1.7405-1.0304-.2043 0-.3891.019-.5447.0578-.0776.6223-.0776 1.9156-.0776 2.159.1263.0095.2723.029.5542.029 1.0597 0 1.186-.2333 1.2252-.7099h.2042c-.0391.3694-.068.7391-.068 1.1184 0 .6417 0 .243.0095.7485h-.2142c0-.5154-.2039-.7972-1.1567-.7972-.2335 0-.428 0-.5542.0095 0 .3115 0 1.8475.0289 2.4892.2141.0099.428.0388.6516.0388 1.5459 0 1.8669-.4861 2.1876-1.089zm.3408 1.3902c.1944 0 .2624-.0775.418-.2134.3112-.2822 2.3435-2.4507 2.3823-2.4895-.1848-.2237-.9433-1.2153-1.8669-2.4017-.5348-.6809-.5736-.6611-.8364-.7296v-.0871c.4963.0194.992.0388 1.4876.0388.418 0 .8654-.0194 1.2743-.0388v.0871c-.1171.0198-.2533.0487-.2533.1948 0 .4081 1.06 1.7014 1.2643 1.9836.2823-.3305 1.196-1.5949 1.196-1.8962 0-.2624-.175-.2624-.3207-.2822v-.0871c.3496.0099.6999.0388 1.0597.0388.3207 0 .6611-.0194.9723-.0388v.0871c-.0974.0099-.2142.0487-.35.1073-.2335.097-1.5074 1.6238-2.3043 2.3724.1944.2332 1.1765 1.4686 2.1777 2.6642.5253.6325.5835.6614.8265.6904v.0878c-.5252-.0392-1.0597-.0392-1.585-.0392-.3983 0-.8064.0195-1.2054.0392v-.0878c.1358 0 .253-.0194.253-.1842 0-.3115-1.3227-1.8478-1.5562-2.2175-.2526.3115-1.3028 1.653-1.3028 2.1784 0 .2233.1944.2233.3207.2233v.0878c-.3306-.0197-.6516-.0392-.9818-.0392-.3598 0-.7197.0195-1.0696.0392zm7.6053-5.2613c-.2134 0-.3651-.1598-.3651-.3712 0-.2236.1686-.3714.365-.3714.1948 0 .3635.1478.3635.3714 0 .2234-.1687.3712-.3634.3712m0-.678c-.1609 0-.2858.1259-.2858.3068 0 .1687.109.3066.2858.3066.1587 0 .284-.1249.284-.3066 0-.181-.1253-.3069-.284-.3069m-.0734.5193h-.0677v-.411h.156c.0994 0 .1498.0346.1498.1182 0 .0744-.0455.1051-.1069.1122l.115.1806h-.0765l-.1062-.1757h-.0635zm.0755-.2332c.0505 0 .0953-.005.0953-.0649 0-.0494-.0487-.0554-.0893-.0554h-.0815v.1203z" fill="#5a5c61"/></svg>